<?xml version="1.0" encoding="UTF-8" standalone="no"?>
<!-- Created with Inkscape (http://www.inkscape.org/) -->

<svg
   width="35cm"
   height="21.875cm"
   viewBox="0 0 350 218.75"
   version="1.1"
   id="svg1"
   inkscape:export-filename="Image4.jpg"
   inkscape:export-xdpi="96"
   inkscape:export-ydpi="96"
   inkscape:version="1.4.2 (f4327f4, 2025-05-13)"
   sodipodi:docname="Engranes.svg"
   xmlns:inkscape="http://www.inkscape.org/namespaces/inkscape"
   xmlns:sodipodi="http://sodipodi.sourceforge.net/DTD/sodipodi-0.dtd"
   xmlns:xlink="http://www.w3.org/1999/xlink"
   xmlns="http://www.w3.org/2000/svg"
   xmlns:svg="http://www.w3.org/2000/svg">
  <sodipodi:namedview
     id="namedview1"
     pagecolor="#505050"
     bordercolor="#ffffff"
     borderopacity="1"
     inkscape:showpageshadow="0"
     inkscape:pageopacity="0"
     inkscape:pagecheckerboard="1"
     inkscape:deskcolor="#505050"
     inkscape:document-units="cm"
     inkscape:zoom="0.5007929"
     inkscape:cx="689.90594"
     inkscape:cy="458.27327"
     inkscape:window-width="1277"
     inkscape:window-height="981"
     inkscape:window-x="-8"
     inkscape:window-y="0"
     inkscape:window-maximized="0"
     inkscape:current-layer="svg1"
     inkscape:export-bgcolor="#393939ff" />
  <defs
     id="defs1">
    <linearGradient
       id="linearGradient46"
       inkscape:collect="always">
      <stop
         style="stop-color:#ffffff;stop-opacity:0.5418182;"
         offset="0"
         id="stop45" />
      <stop
         style="stop-color:#eaec7d;stop-opacity:0;"
         offset="1"
         id="stop46" />
    </linearGradient>
    <linearGradient
       id="linearGradient44"
       inkscape:collect="always">
      <stop
         style="stop-color:#ffffff;stop-opacity:0.5418182;"
         offset="0"
         id="stop43" />
      <stop
         style="stop-color:#eaec7d;stop-opacity:0;"
         offset="1"
         id="stop44" />
    </linearGradient>
    <linearGradient
       id="linearGradient42"
       inkscape:collect="always">
      <stop
         style="stop-color:#ffffff;stop-opacity:0.5418182;"
         offset="0"
         id="stop41" />
      <stop
         style="stop-color:#eaec7d;stop-opacity:0;"
         offset="1"
         id="stop42" />
    </linearGradient>
    <linearGradient
       id="linearGradient40"
       inkscape:collect="always">
      <stop
         style="stop-color:#ffffff;stop-opacity:0.5418182;"
         offset="0"
         id="stop39" />
      <stop
         style="stop-color:#eaec7d;stop-opacity:0;"
         offset="1"
         id="stop40" />
    </linearGradient>
    <linearGradient
       id="linearGradient34"
       inkscape:collect="always">
      <stop
         style="stop-color:#ffffff;stop-opacity:0.5418182;"
         offset="0"
         id="stop34" />
      <stop
         style="stop-color:#eaec7d;stop-opacity:0;"
         offset="1"
         id="stop35" />
    </linearGradient>
    <radialGradient
       inkscape:collect="always"
       xlink:href="#linearGradient40"
       id="radialGradient35"
       cx="75.570351"
       cy="46.218948"
       fx="75.570351"
       fy="46.218948"
       r="123.28302"
       gradientTransform="matrix(1,0,0,0.93030303,-2.1798675e-7,4.504528)"
       gradientUnits="userSpaceOnUse" />
    <radialGradient
       inkscape:collect="always"
       xlink:href="#linearGradient44"
       id="radialGradient36"
       gradientUnits="userSpaceOnUse"
       gradientTransform="matrix(1,0,0,0.93030303,-2.5456499e-6,4.5045278)"
       cx="311.24899"
       cy="163.44661"
       fx="311.24899"
       fy="163.44661"
       r="123.28302" />
    <radialGradient
       inkscape:collect="always"
       xlink:href="#linearGradient42"
       id="radialGradient37"
       gradientUnits="userSpaceOnUse"
       gradientTransform="matrix(1,0,0,0.93030303,-2.7022431e-6,4.504527)"
       cx="251.4754"
       cy="43.777748"
       fx="251.4754"
       fy="43.777748"
       r="123.28302" />
    <radialGradient
       inkscape:collect="always"
       xlink:href="#linearGradient46"
       id="radialGradient38"
       gradientUnits="userSpaceOnUse"
       gradientTransform="matrix(1,0,0,0.93030303,-2.8248411e-6,4.504527)"
       cx="163.30936"
       cy="156.21829"
       fx="163.30936"
       fy="156.21829"
       r="123.28302" />
    <radialGradient
       inkscape:collect="always"
       xlink:href="#linearGradient34"
       id="radialGradient39"
       gradientUnits="userSpaceOnUse"
       gradientTransform="matrix(1,0,0,0.93030303,-5.2026782e-6,4.5045306)"
       cx="40.773514"
       cy="203.60394"
       fx="40.773514"
       fy="203.60394"
       r="123.28302" />
  </defs>
  <g
     inkscape:label="Capa 1"
     inkscape:groupmode="layer"
     id="layer1">
    <path
       style="fill:#25b739;fill-opacity:1;stroke:#000000;stroke-width:1;stroke-dasharray:none"
       d="m 153.89288,37.178818 0.4639,-0.03736 1.237,0.20261 1.7194,0.71941 v 1.20512 l -1.7194,0.71941 -1.237,0.20261 -0.4639,-0.03736 -35.9228,4.72933 -0.4384,0.15615 -1.2473,0.12445 -1.847,-0.24989 -0.3119,-1.16405 1.4746,-1.13991 1.1424,-0.51586 0.4578,-0.08399 -0.2444,-1.85623 -0.4639,0.03736 -1.237,-0.20261 -1.7194,-0.71941 v -1.20512 l 1.7194,-0.71941 1.237,-0.20261 0.4639,0.03736 0.2444,-1.85623 -0.4578,-0.08399 -1.1424,-0.51586 -1.4746,-1.13991 0.3119,-1.16405 1.847,-0.24989 1.2473,0.12445 0.4384,0.15615 0.7165,-1.72973 -0.4204,-0.1996 -0.97,-0.79396 -1.1293,-1.48276 0.6025,-1.0436 1.8488,0.2366 1.1725,0.4431 0.3831,0.2643 1.1398,-1.4854 -0.3545,-0.3016 -0.7314,-1.0179 -0.7071,-1.7245 0.8522,-0.8522 1.7245,0.7071 1.0179,0.7314 0.3016,0.3545 1.4854,-1.1398 -0.2643,-0.3831 -0.4431,-1.1725 -0.2366,-1.8488 1.0436,-0.6025 1.48276,1.1293 0.79396,0.97 0.1996,0.4204 1.72973,-0.7165 -0.15615,-0.4384 -0.12445,-1.2473 0.24989,-1.847 1.16405,-0.3119 1.13991,1.4746 0.51586,1.1424 0.084,0.4578 1.85623,-0.2444 -0.0374,-0.4639 0.20261,-1.237 0.71941,-1.7194 h 1.20512 l 0.71941,1.7194 0.20261,1.237 -0.0374,0.4639 1.85623,0.2444 0.084,-0.4578 0.51586,-1.1424 1.13991,-1.4746 1.16405,0.3119 0.24989,1.847 -0.12445,1.2473 -0.15615,0.4384 1.72973,0.7165 0.1996,-0.4204 0.79396,-0.97 1.48276,-1.1293 1.0436,0.6025 -0.2366,1.8488 -0.4431,1.1725 -0.2643,0.3831 1.4854,1.1398 0.3016,-0.3545 1.0179,-0.7314 1.7245,-0.7071 0.8522,0.8522 -0.7071,1.7245 -0.7314,1.0179 -0.3545,0.3016 1.1398,1.4854 0.3831,-0.2643 1.1725,-0.4431 1.8488,-0.2366 0.6025,1.0436 -1.1293,1.48276 -0.97,0.79396 -0.4204,0.1996 0.7165,1.72973 0.4384,-0.15615 1.2473,-0.12445 1.847,0.24989 0.3119,1.16405 -1.4746,1.13991 -1.1424,0.51586 -0.4578,0.08399 z"
       id="path1"
       sodipodi:nodetypes="ccccccccccccccccccccccccccccccccccccccccccccccccccccccccccccccccccccccccccccccccccccccccccccccccccccccccccccccccc" />
    <path
       style="fill:#445bda;fill-opacity:1;stroke:#000000;stroke-width:1;stroke-dasharray:none"
       d="m 233.42958,207.44258 -0.084,0.4578 -0.51586,1.1424 -1.13991,1.4746 -1.16405,-0.3119 -0.24989,-1.847 0.12445,-1.2473 0.15615,-0.4384 -1.72973,-0.7165 -0.1996,0.4204 -0.79396,0.97 -1.48276,1.1293 -1.0436,-0.6025 0.2366,-1.8488 0.4431,-1.1725 0.2643,-0.3831 -1.4854,-1.1398 -0.3016,0.3545 -1.0179,0.7314 -1.7245,0.7071 -0.8522,-0.8522 0.7071,-1.7245 0.7314,-1.0179 0.3545,-0.3016 -1.1398,-1.4854 -0.3831,0.2643 -1.1725,0.4431 -1.8488,0.2366 -0.6025,-1.0436 1.1293,-1.48276 0.97,-0.79396 0.4204,-0.1996 -0.7165,-1.72973 -0.4384,0.15615 -1.2473,0.12445 -1.847,-0.24989 -0.3119,-1.16405 1.4746,-1.13991 1.1424,-0.51586 0.4578,-0.084 -0.2444,-1.85623 -0.4639,0.0374 -1.237,-0.20261 -1.7194,-0.71941 v -1.20512 l 1.7194,-0.71941 1.237,-0.20261 0.4639,0.0374 0.2444,-1.85623 -0.4578,-0.084 -1.1424,-0.51586 -1.4746,-1.13991 0.3119,-1.16405 1.847,-0.24989 1.2473,0.12445 0.4384,0.15615 0.7165,-1.72973 -0.4204,-0.1996 -0.97,-0.79396 -1.1293,-1.48276 0.6025,-1.0436 1.8488,0.2366 1.1725,0.4431 0.3831,0.2643 1.1398,-1.4854 -0.3545,-0.3016 -0.7314,-1.0179 -0.7071,-1.7245 0.8522,-0.8522 1.7245,0.7071 1.0179,0.7314 0.3016,0.3545 1.4854,-1.1398 -0.2643,-0.3831 -0.4431,-1.1725 -0.2366,-1.8488 1.0436,-0.6025 1.48276,1.1293 0.79396,0.97 0.1996,0.4204 1.72973,-0.7165 -0.15615,-0.4384 -0.12445,-1.2473 0.24989,-1.847 1.16405,-0.3119 1.13991,1.4746 0.51586,1.1424 0.084,0.4578 1.85623,-0.2444 -0.0374,-0.4639 0.20261,-1.237 0.71941,-1.7194 h 1.20512 l 0.71941,1.7194 0.20261,1.237 -0.0374,0.4639 1.85623,0.2444 0.084,-0.4578 0.51586,-1.1424 1.13991,-1.4746 1.16405,0.3119 0.24989,1.847 -0.12445,1.2473 -0.15615,0.4384 1.72973,0.7165 0.1996,-0.4204 0.79396,-0.97 1.48276,-1.1293 1.0436,0.6025 -0.2366,1.8488 -0.4431,1.1725 -0.2643,0.3831 1.4854,1.1398 0.3016,-0.3545 1.0179,-0.7314 1.7245,-0.7071 0.8522,0.8522 -0.7071,1.7245 -0.7314,1.0179 -0.3545,0.3016 z"
       id="path16"
       sodipodi:nodetypes="ccccccccccccccccccccccccccccccccccccccccccccccccccccccccccccccccccccccccccccccccccccccccccccccccccccccccccccccccccccccccc" />
    <path
       style="fill:#c6d52e;fill-opacity:1;stroke:#000000;stroke-width:1;stroke-dasharray:none"
       d="m 340.42893,69.313558 0.4639,-0.03736 1.237,0.20261 1.7194,0.71941 v 1.20512 l -1.7194,0.71941 -1.237,0.20261 -0.4639,-0.03736 -0.2444,1.85623 0.4578,0.08399 1.1424,0.51586 1.4746,1.13991 -0.3119,1.16405 -1.847,0.24989 -1.2473,-0.12445 -0.4384,-0.15615 -0.7165,1.72973 0.4204,0.1996 0.97,0.79396 1.1293,1.48276 -0.6025,1.0436 -1.8488,-0.2366 -1.1725,-0.4431 -0.3831,-0.2643 -1.1398,1.4854 0.3545,0.3016 0.7314,1.0179 0.7071,1.7245 -0.8522,0.8522 -1.7245,-0.7071 -1.0179,-0.7314 -0.3016,-0.3545 -1.4854,1.1398 0.2643,0.3831 0.4431,1.1725 0.2366,1.8488 -1.0436,0.6025 -1.48276,-1.1293 -0.79396,-0.97 -0.1996,-0.4204 -1.72973,0.7165 0.15615,0.4384 0.12445,1.2473 -0.24989,1.847 -1.16405,0.3119 -1.13991,-1.4746 -0.51586,-1.1424 -0.084,-0.4578 -1.85623,0.2444 0.0374,0.4639 -0.20261,1.237 -0.71941,1.7194 h -1.20512 l -0.71941,-1.7194 -0.20261,-1.237 0.0374,-0.4639 -1.85623,-0.2444 -0.084,0.4578 -0.51586,1.1424 -1.13991,1.4746 -1.16405,-0.3119 -0.24989,-1.847 0.12445,-1.2473 0.15615,-0.4384 -1.72973,-0.7165 -0.1996,0.4204 -0.79396,0.97 -1.48276,1.1293 -1.0436,-0.6025 0.2366,-1.8488 0.4431,-1.1725 0.2643,-0.3831 -1.4854,-1.1398 -0.3016,0.3545 -1.0179,0.7314 -1.7245,0.7071 -0.8522,-0.8522 0.7071,-1.7245 0.7314,-1.0179 0.3545,-0.3016 -1.1398,-1.4854 -0.3831,0.2643 -1.1725,0.4431 -1.8488,0.2366 -0.6025,-1.0436 1.1293,-1.48276 0.97,-0.79396 0.4204,-0.1996 -0.7165,-1.72973 -0.4384,0.15615 -1.2473,0.12445 -1.847,-0.24989 -0.3119,-1.16405 1.4746,-1.13991 1.1424,-0.51586 0.4578,-0.08399 -0.2444,-1.85623 -0.4639,0.03736 -1.237,-0.20261 -1.7194,-0.71941 v -1.20512 l 1.7194,-0.71941 1.237,-0.20261 0.4639,0.03736 0.2444,-1.85623 -0.4578,-0.08399 -1.1424,-0.51586 -1.4746,-1.13991 0.3119,-1.16405 1.847,-0.24989 1.2473,0.12445 0.4384,0.15615 0.7165,-1.72973 -0.4204,-0.1996 -0.97,-0.79396 -1.1293,-1.48276 0.6025,-1.0436 1.8488,0.2366 1.1725,0.4431 0.3831,0.2643 1.1398,-1.4854 -0.3545,-0.3016 -0.7314,-1.0179 -0.7071,-1.7245 0.8522,-0.8522 1.7245,0.7071 1.0179,0.7314 0.3016,0.3545 1.4854,-1.1398 -0.2643,-0.3831 -0.4431,-1.1725 -0.2366,-1.8488 1.0436,-0.6025 1.48276,1.1293 0.79396,0.97 0.1996,0.4204 1.72973,-0.7165 -0.15615,-0.4384 -0.12445,-1.2473 0.24989,-1.847 1.16405,-0.3119 1.13991,1.4746 0.51586,1.1424 0.084,0.4578 1.85623,-0.2444 -0.0374,-0.4639 0.20261,-1.237 0.71941,-1.7194 h 1.20512 l 0.71941,1.7194 0.20261,1.237 -0.0374,0.4639 1.85623,0.2444 0.084,-0.4578 0.51586,-1.1424 1.13991,-1.4746 1.16405,0.3119 0.24989,1.847 -0.12445,1.2473 -0.15615,0.4384 1.72973,0.7165 0.1996,-0.4204 0.79396,-0.97 1.48276,-1.1293 1.0436,0.6025 -0.2366,1.8488 -0.4431,1.1725 -0.2643,0.3831 1.4854,1.1398 0.3016,-0.3545 1.0179,-0.7314 1.7245,-0.7071 0.8522,0.8522 -0.7071,1.7245 -0.7314,1.0179 -0.3545,0.3016 1.1398,1.4854 0.3831,-0.2643 1.1725,-0.4431 1.8488,-0.2366 0.6025,1.0436 -1.1293,1.48276 -0.97,0.79396 -0.4204,0.1996 0.7165,1.72973 0.4384,-0.15615 1.2473,-0.12445 1.847,0.24989 0.3119,1.16405 -1.4746,1.13991 -1.1424,0.51586 -0.4578,0.08399 z"
       id="path17" />
    <path
       style="fill:#d52e2e;fill-opacity:1;stroke:#000000;stroke-width:1;stroke-dasharray:none"
       d="m 221.99743,123.74887 0.4639,-0.0374 1.237,0.20261 1.7194,0.71941 v 1.20512 l -1.7194,0.71941 -1.237,0.20261 -0.4639,-0.0374 -0.2444,1.85623 0.4578,0.084 1.1424,0.51586 h -39.6486 l 1.1424,-0.51586 0.4578,-0.084 -0.2444,-1.85623 -0.4639,0.0374 -1.237,-0.20261 -1.7194,-0.71941 v -1.20512 l 1.7194,-0.71941 1.237,-0.20261 0.4639,0.0374 0.2444,-1.85623 -0.4578,-0.084 -1.1424,-0.51586 -1.4746,-1.13991 0.3119,-1.16405 1.847,-0.24989 1.2473,0.12445 0.4384,0.15615 0.7165,-1.72973 -0.4204,-0.1996 -0.97,-0.79396 -1.1293,-1.48276 0.6025,-1.0436 1.8488,0.2366 1.1725,0.4431 0.3831,0.2643 1.1398,-1.4854 -0.3545,-0.3016 -0.7314,-1.0179 -0.7071,-1.7245 0.8522,-0.8522 1.7245,0.7071 1.0179,0.7314 0.3016,0.3545 1.4854,-1.1398 -0.2643,-0.3831 -0.4431,-1.1725 -0.2366,-1.8488 1.0436,-0.6025 1.48276,1.1293 0.79396,0.97 0.1996,0.4204 1.72973,-0.7165 -0.15615,-0.4384 -0.12445,-1.2473 0.24989,-1.847 1.16405,-0.3119 1.13991,1.4746 0.51586,1.1424 0.084,0.4578 1.85623,-0.2444 -0.0374,-0.4639 0.20261,-1.237 0.71941,-1.7194 h 1.20512 l 0.71941,1.7194 0.20261,1.237 -0.0374,0.4639 1.85623,0.2444 0.084,-0.4578 0.51586,-1.1424 1.13991,-1.4746 1.16405,0.3119 0.24989,1.847 -0.12445,1.2473 -0.15615,0.4384 1.72973,0.7165 0.1996,-0.4204 0.79396,-0.97 1.48276,-1.1293 1.0436,0.6025 -0.2366,1.8488 -0.4431,1.1725 -0.2643,0.3831 1.4854,1.1398 0.3016,-0.3545 1.0179,-0.7314 1.7245,-0.7071 0.8522,0.8522 -0.7071,1.7245 -0.7314,1.0179 -0.3545,0.3016 1.1398,1.4854 0.3831,-0.2643 1.1725,-0.4431 1.8488,-0.2366 0.6025,1.0436 -1.1293,1.48276 -0.97,0.79396 -0.4204,0.1996 0.7165,1.72973 0.4384,-0.15615 1.2473,-0.12445 1.847,0.24989 0.3119,1.16405 -1.4746,1.13991 -1.1424,0.51586 -0.4578,0.084 z"
       id="path18"
       sodipodi:nodetypes="ccccccccccccccccccccccccccccccccccccccccccccccccccccccccccccccccccccccccccccccccccccccccccccccccccccccccccccccc" />
    <path
       style="fill:#d52e2e;fill-opacity:1;stroke:#000000;stroke-width:1;stroke-dasharray:none"
       d="m 107.94572,94.646802 0.4639,-0.03736 1.237,0.20261 1.7194,0.71941 v 1.20512 l -1.7194,0.71941 -1.237,0.20261 -0.4639,-0.03736 -0.2444,1.85623 0.4578,0.08399 1.1424,0.515858 1.4746,1.13991 -0.3119,1.16405 -1.847,0.24989 -1.2473,-0.12445 -0.4384,-0.15615 -0.7165,1.72973 0.4204,0.1996 0.97,0.79396 1.1293,1.48276 -0.6025,1.0436 -1.8488,-0.2366 -1.1725,-0.4431 -0.3831,-0.2643 -1.1398,1.4854 0.3545,0.3016 0.7314,1.0179 0.7071,1.7245 -0.8522,0.8522 -1.7245,-0.7071 -1.0179,-0.7314 -0.3016,-0.3545 -1.4854,1.1398 0.2643,0.3831 0.4431,1.1725 0.2366,1.8488 -1.0436,0.6025 -1.48276,-1.1293 -0.79396,-0.97 -0.1996,-0.4204 -1.72973,0.7165 0.15615,0.4384 0.12445,1.2473 -0.24989,1.847 -1.16405,0.3119 -1.13991,-1.4746 -0.51586,-1.1424 -0.08399,-0.4578 -1.85623,0.2444 0.03736,0.4639 -0.20261,1.237 -0.71941,1.7194 h -1.20512 l -0.71941,-1.7194 -0.20261,-1.237 0.03736,-0.4639 -1.85623,-0.2444 -0.08399,0.4578 -0.51586,1.1424 -1.13991,1.4746 -1.16405,-0.3119 -0.24989,-1.847 0.12445,-1.2473 0.15615,-0.4384 -1.72973,-0.7165 -0.1996,0.4204 -0.79396,0.97 -1.48276,1.1293 -1.0436,-0.6025 0.2366,-1.8488 0.4431,-1.1725 0.2643,-0.3831 -1.4854,-1.1398 -0.3016,0.3545 -1.0179,0.7314 -1.7245,0.7071 -0.8522,-0.8522 0.7071,-1.7245 0.7314,-1.0179 0.3545,-0.3016 -1.1398,-1.4854 -0.3831,0.2643 -1.1725,0.4431 -1.8488,0.2366 -0.6025,-1.0436 1.1293,-1.48276 0.97,-0.79396 0.4204,-0.1996 -0.7165,-1.72973 -0.4384,0.15615 -1.2473,0.12445 -1.847,-0.24989 -0.3119,-1.16405 1.4746,-1.13991 1.1424,-0.515858 0.4578,-0.08399 -0.2444,-1.85623 -0.4639,0.03736 -1.237,-0.20261 -1.7194,-0.71941 v -1.20512 l 1.7194,-0.71941 1.237,-0.20261 0.4639,0.03736 0.2444,-1.85623 -0.4578,-0.08399 -1.1424,-0.51586 -1.4746,-1.13991 0.3119,-1.16405 1.847,-0.24989 1.2473,0.12445 0.4384,0.15615 0.7165,-1.72973 -0.4204,-0.1996 -0.97,-0.79396 -1.1293,-1.48276 0.6025,-1.0436 1.8488,0.2366 1.1725,0.4431 0.3831,0.2643 1.1398,-1.4854 -0.3545,-0.3016 -0.7314,-1.0179 -0.7071,-1.7245 0.8522,-0.8522 1.7245,0.7071 1.0179,0.7314 0.3016,0.3545 1.4854,-1.1398 -0.2643,-0.3831 -0.4431,-1.1725 -0.2366,-1.8488 1.0436,-0.6025 1.48276,1.1293 0.79396,0.97 0.1996,0.4204 1.72973,-0.7165 -0.15615,-0.4384 -0.12445,-1.2473 0.24989,-1.847 1.16405,-0.3119 1.13991,1.4746 0.51586,1.1424 0.08399,0.4578 1.85623,-0.2444 -0.03736,-0.4639 0.20261,-1.237 0.71941,-1.7194 h 1.20512 l 0.71941,1.7194 0.20261,1.237 -0.03736,0.4639 1.85623,0.2444 0.08399,-0.4578 0.51586,-1.1424 1.13991,-1.4746 1.16405,0.3119 0.24989,1.847 -0.12445,1.2473 -0.15615,0.4384 1.72973,0.7165 0.1996,-0.4204 0.79396,-0.97 1.48276,-1.1293 1.0436,0.6025 -0.2366,1.8488 -0.4431,1.1725 -0.2643,0.3831 1.4854,1.1398 0.3016,-0.3545 1.0179,-0.7314 1.7245,-0.7071 0.8522,0.8522 -0.7071,1.7245 -0.7314,1.0179 -0.3545,0.3016 1.1398,1.4854 0.3831,-0.2643 1.1725,-0.4431 1.8488,-0.2366 0.6025,1.0436 -1.1293,1.48276 -0.97,0.79396 -0.4204,0.1996 0.7165,1.72973 0.4384,-0.15615 1.2473,-0.12445 1.847,0.24989 0.3119,1.16405 -1.4746,1.13991 -1.1424,0.51586 -0.4578,0.08399 z"
       id="path19"
       sodipodi:nodetypes="ccccccccccccccccccccccccccccccccccccccccccccccccccccccccccccccccccccccccccccccccccccccccccccccccccccccccccccccccccccccccccccccccccccccccccccccccccccccccccccccccccccccccccccccccccccccccccccccccc" />
    <path
       style="fill:#25b739;fill-opacity:1;stroke:#000000;stroke-width:1;stroke-dasharray:none"
       d="m 51.397084,185.11089 0.4639,-0.0374 1.237,0.20261 1.7194,0.71941 v 1.20512 l -1.7194,0.71941 -1.237,0.20261 -0.4639,-0.0374 -0.2444,1.85623 0.4578,0.084 1.1424,0.51586 1.4746,1.13991 -0.3119,1.16405 -1.847,0.24989 -1.2473,-0.12445 -0.4384,-0.15615 -0.7165,1.72973 0.4204,0.1996 0.97,0.79396 1.1293,1.48276 -0.6025,1.0436 -1.8488,-0.2366 -1.1725,-0.4431 -0.3831,-0.2643 -1.1398,1.4854 0.3545,0.3016 0.7314,1.0179 0.7071,1.7245 -0.8522,0.8522 -1.7245,-0.7071 -1.0179,-0.7314 -0.3016,-0.3545 -1.4854,1.1398 0.2643,0.3831 0.4431,1.1725 0.2366,1.8488 -1.0436,0.6025 -1.48276,-1.1293 -0.79396,-0.97 -0.1996,-0.4204 -1.72973,0.7165 0.15615,0.4384 0.12445,1.2473 -0.24989,1.847 -1.16405,0.3119 -1.13991,-1.4746 -0.51586,-1.1424 -0.08399,-0.4578 -1.85623,0.2444 0.03736,0.4639 -0.20261,1.237 -0.71941,1.7194 h -1.20512 l -0.71941,-1.7194 -0.20261,-1.237 0.03736,-0.4639 -1.85623,-0.2444 -0.08399,0.4578 -0.51586,1.1424 -1.13991,1.4746 -1.16405,-0.3119 -0.24989,-1.847 0.12445,-1.2473 0.15615,-0.4384 -1.72973,-0.7165 -0.1996,0.4204 -0.79396,0.97 -1.48276,1.1293 -1.0436,-0.6025 0.2366,-1.8488 0.4431,-1.1725 0.2643,-0.3831 -1.4854,-1.1398 -0.3016,0.3545 -1.0179,0.7314 -1.7245,0.7071 -0.8522,-0.8522 0.7071,-1.7245 0.7314,-1.0179 0.3545,-0.3016 -1.1398,-1.4854 -0.3831,0.2643 -1.1725,0.4431 -1.8488,0.2366 -0.6025,-1.0436 1.1293,-1.48276 0.97,-0.79396 0.4204,-0.1996 -0.7165,-1.72973 -0.4384,0.15615 -1.2473,0.12445 -1.847,-0.24989 -0.3119,-1.16405 1.4746,-1.13991 1.1424,-0.51586 0.4578,-0.084 -0.2444,-1.85623 -0.4639,0.0374 -1.237,-0.20261 -1.7194,-0.71941 v -1.20512 l 1.7194,-0.71941 1.237,-0.20261 0.4639,0.0374 0.2444,-1.85623 -0.4578,-0.084 -1.1424,-0.51586 -1.4746,-1.13991 0.3119,-1.16405 1.847,-0.24989 1.2473,0.12445 0.4384,0.15615 0.7165,-1.72973 -0.4204,-0.1996 -0.97,-0.79396 -1.1293,-1.48276 0.6025,-1.0436 1.8488,0.2366 1.1725,0.4431 0.3831,0.2643 1.1398,-1.4854 -0.3545,-0.3016 -0.7314,-1.0179 -0.7071,-1.7245 0.8522,-0.8522 1.7245,0.7071 1.0179,0.7314 0.3016,0.3545 1.4854,-1.1398 -0.2643,-0.3831 -0.4431,-1.1725 -0.2366,-1.8488 1.0436,-0.6025 1.48276,1.1293 0.79396,0.97 0.1996,0.4204 1.72973,-0.7165 -0.15615,-0.4384 -0.12445,-1.2473 0.24989,-1.847 1.16405,-0.3119 1.13991,1.4746 0.51586,1.1424 0.08399,0.4578 1.85623,-0.2444 -0.03736,-0.4639 0.20261,-1.237 0.71941,-1.7194 h 1.20512 l 0.71941,1.7194 0.20261,1.237 -0.03736,0.4639 1.85623,0.2444 0.08399,-0.4578 0.51586,-1.1424 1.13991,-1.4746 1.16405,0.3119 0.24989,1.847 -0.12445,1.2473 -0.15615,0.4384 1.72973,0.7165 0.1996,-0.4204 0.79396,-0.97 1.48276,-1.1293 1.0436,0.6025 -0.2366,1.8488 -0.4431,1.1725 -0.2643,0.3831 1.4854,1.1398 0.3016,-0.3545 1.0179,-0.7314 1.7245,-0.7071 0.8522,0.8522 -0.7071,1.7245 -0.7314,1.0179 -0.3545,0.3016 1.1398,1.4854 0.3831,-0.2643 1.1725,-0.4431 1.8488,-0.2366 0.6025,1.0436 -1.1293,1.48276 -0.97,0.79396 -0.4204,0.1996 0.7165,1.72973 0.4384,-0.15615 1.2473,-0.12445 1.847,0.24989 0.3119,1.16405 -1.4746,1.13991 -1.1424,0.51586 -0.4578,0.084 z"
       id="path20"
       sodipodi:nodetypes="ccccccccccccccccccccccccccccccccccccccccccccccccccccccccccccccccccccccccccccccccccccccccccccccccccccccccccccccccccccccccccccccccccccccccccccccccccccccccccccccccccccccccccccccccccccccccccccccccc" />
    <path
       style="fill:#445bda;fill-opacity:1;stroke:#000000;stroke-width:1;stroke-dasharray:none"
       d="m 308.62546,137.21367 0.0374,0.4639 -0.20261,1.237 -0.71941,1.7194 h -1.20512 l -0.71941,-1.7194 -0.20261,-1.237 0.0374,-0.4639 -1.85623,-0.2444 -0.084,0.4578 -0.51586,1.1424 -1.13991,1.4746 -1.16405,-0.3119 -0.24989,-1.847 0.12445,-1.2473 0.15615,-0.4384 -1.72973,-0.7165 -0.1996,0.4204 -0.79396,0.97 -1.48276,1.1293 -1.0436,-0.6025 0.2366,-1.8488 0.4431,-1.1725 0.2643,-0.3831 -1.4854,-1.1398 -0.3016,0.3545 -1.0179,0.7314 -1.7245,0.7071 -0.8522,-0.8522 0.7071,-1.7245 0.7314,-1.0179 0.3545,-0.3016 -1.1398,-1.4854 -0.3831,0.2643 -1.1725,0.4431 -1.8488,0.2366 -0.6025,-1.0436 1.1293,-1.48276 0.97,-0.79396 0.4204,-0.1996 -0.7165,-1.72973 -0.4384,0.15615 -1.2473,0.12445 -1.847,-0.24989 -0.3119,-1.16405 1.4746,-1.13991 1.1424,-0.51586 0.4578,-0.084 -0.2444,-1.85623 -0.4639,0.0374 -1.237,-0.20261 -1.7194,-0.71941 v -1.20512 l 1.7194,-0.71941 1.237,-0.20261 0.4639,0.0374 0.2444,-1.85623 -0.4578,-0.084 -1.1424,-0.51586 -1.4746,-1.13991 0.3119,-1.16405 1.847,-0.24989 1.2473,0.12445 0.4384,0.15615 0.7165,-1.72973 -0.4204,-0.1996 -0.97,-0.79396 -1.1293,-1.48276 0.6025,-1.0436 1.8488,0.2366 1.1725,0.4431 0.3831,0.2643 1.1398,-1.4854 -0.3545,-0.3016 -0.7314,-1.0179 -0.7071,-1.7245 0.8522,-0.8522 1.7245,0.7071 1.0179,0.7314 0.3016,0.3545 1.4854,-1.1398 -0.2643,-0.3831 -0.4431,-1.1725 -0.2366,-1.8488 1.0436,-0.6025 1.48276,1.1293 0.79396,0.97 0.1996,0.4204 1.72973,-0.7165 -0.15615,-0.4384 -0.12445,-1.2473 0.24989,-1.847 1.16405,-0.3119 1.13991,1.4746 0.51586,1.1424 0.084,0.4578 1.85623,-0.2444 -0.0374,-0.4639 0.20261,-1.237 0.71941,-1.7194 h 1.20512 l 0.71941,1.7194 0.20261,1.237 -0.0374,0.4639 1.85623,0.2444 0.084,-0.4578 0.51586,-1.1424 1.13991,-1.4746 1.16405,0.3119 0.24989,1.847 -0.12445,1.2473 -0.15615,0.4384 z"
       id="path21"
       sodipodi:nodetypes="ccccccccccccccccccccccccccccccccccccccccccccccccccccccccccccccccccccccccccccccccccccccccccccccccccccccccccccccccc" />
    <path
       style="fill:#c6d52e;fill-opacity:1;stroke:#000000;stroke-width:1;stroke-dasharray:none"
       d="m 203.97634,50.351374 0.4639,-0.03736 1.237,0.20261 1.7194,0.71941 v 1.20512 l -1.7194,0.71941 -1.237,0.20261 -0.4639,-0.03736 -0.2444,1.85623 0.4578,0.08399 1.1424,0.51586 1.4746,1.13991 -0.3119,1.16405 -1.847,0.24989 -1.2473,-0.12445 -0.4384,-0.15615 -0.7165,1.72973 0.4204,0.1996 0.97,0.79396 1.1293,1.48276 -0.6025,1.0436 -1.8488,-0.2366 -1.1725,-0.4431 -0.3831,-0.2643 -1.1398,1.4854 0.3545,0.3016 0.7314,1.0179 0.7071,1.7245 -0.8522,0.8522 -1.7245,-0.7071 -1.0179,-0.7314 -0.3016,-0.3545 -1.4854,1.1398 0.2643,0.3831 0.4431,1.1725 0.2366,1.8488 -1.0436,0.6025 -1.48276,-1.1293 -0.79396,-0.97 -0.1996,-0.4204 -1.72973,0.7165 0.15615,0.4384 0.12445,1.2473 -0.24989,1.847 -1.16405,0.3119 -1.13991,-1.4746 -0.51586,-1.1424 -0.084,-0.4578 -1.85623,0.2444 0.0374,0.4639 -0.20261,1.237 -0.71941,1.7194 h -1.20512 l -0.71941,-1.7194 -0.20261,-1.237 0.0374,-0.4639 -1.85623,-0.2444 -0.084,0.4578 -0.51586,1.1424 -1.13991,1.4746 -1.16405,-0.3119 -0.24989,-1.847 0.12445,-1.2473 0.15615,-0.4384 -1.72973,-0.7165 -0.1996,0.4204 -0.79396,0.97 -1.48276,1.1293 -1.0436,-0.6025 0.2366,-1.8488 0.4431,-1.1725 0.2643,-0.3831 -1.4854,-1.1398 -0.3016,0.3545 -1.0179,0.7314 -1.7245,0.7071 -0.8522,-0.8522 0.7071,-1.7245 0.7314,-1.0179 0.3545,-0.3016 -1.1398,-1.4854 -0.3831,0.2643 -1.1725,0.4431 -1.8488,0.2366 -0.6025,-1.0436 1.1293,-1.48276 0.97,-0.79396 0.4204,-0.1996 -0.7165,-1.72973 -0.4384,0.15615 -1.2473,0.12445 -1.847,-0.24989 -0.3119,-1.16405 1.4746,-1.13991 1.1424,-0.51586 0.4578,-0.08399 -0.2444,-1.85623 -0.4639,0.03736 -1.237,-0.20261 -1.7194,-0.71941 v -1.20512 l 1.7194,-0.71941 1.237,-0.20261 0.4639,0.03736 0.2444,-1.85623 -0.4578,-0.08399 -1.1424,-0.51586 -1.4746,-1.13991 0.3119,-1.16405 1.847,-0.24989 1.2473,0.12445 0.4384,0.15615 0.7165,-1.72973 -0.4204,-0.1996 -0.97,-0.79396 -1.1293,-1.48276 0.6025,-1.0436 1.8488,0.2366 1.1725,0.4431 0.3831,0.2643 1.1398,-1.4854 -0.3545,-0.3016 -0.7314,-1.0179 -0.7071,-1.7245 0.8522,-0.8522 1.7245,0.7071 1.0179,0.7314 0.3016,0.3545 1.4854,-1.1398 -0.2643,-0.3831 -0.4431,-1.1725 -0.2366,-1.8488 1.0436,-0.6025 1.48276,1.1293 0.79396,0.97 0.1996,0.4204 1.72973,-0.7165 -0.15615,-0.4384 -0.12445,-1.2473 0.24989,-1.847 1.16405,-0.3119 1.13991,1.4746 0.51586,1.1424 0.084,0.4578 1.85623,-0.2444 -0.0374,-0.4639 0.20261,-1.237 0.71941,-1.7194 h 1.20512 l 0.71941,1.7194 0.20261,1.237 -0.0374,0.4639 1.85623,0.2444 0.084,-0.4578 0.51586,-1.1424 1.13991,-1.4746 1.16405,0.3119 0.24989,1.847 -0.12445,1.2473 -0.15615,0.4384 1.72973,0.7165 0.1996,-0.4204 0.79396,-0.97 1.48276,-1.1293 1.0436,0.6025 -0.2366,1.8488 -0.4431,1.1725 -0.2643,0.3831 1.4854,1.1398 0.3016,-0.3545 1.0179,-0.7314 1.7245,-0.7071 0.8522,0.8522 -0.7071,1.7245 -0.7314,1.0179 -0.3545,0.3016 1.1398,1.4854 0.3831,-0.2643 1.1725,-0.4431 1.8488,-0.2366 0.6025,1.0436 -1.1293,1.48276 -0.97,0.79396 -0.4204,0.1996 0.7165,1.72973 0.4384,-0.15615 1.2473,-0.12445 1.847,0.24989 0.3119,1.16405 -1.4746,1.13991 -1.1424,0.51586 -0.4578,0.08399 z"
       id="path22" />
    <path
       style="fill:#25b739;fill-opacity:1;stroke:#000000;stroke-width:1;stroke-dasharray:none"
       d="m 274.61602,97.672462 0.4639,-0.03736 1.237,0.20261 1.7194,0.71941 v 1.20512 l -1.7194,0.719408 -1.237,0.20261 -0.4639,-0.0374 -0.2444,1.85623 0.4578,0.084 1.1424,0.51586 1.4746,1.13991 -0.3119,1.16405 -1.847,0.24989 -1.2473,-0.12445 -0.4384,-0.15615 -0.7165,1.72973 0.4204,0.1996 0.97,0.79396 1.1293,1.48276 -0.6025,1.0436 -1.8488,-0.2366 -1.1725,-0.4431 -0.3831,-0.2643 -1.1398,1.4854 0.3545,0.3016 0.7314,1.0179 0.7071,1.7245 -0.8522,0.8522 -1.7245,-0.7071 -1.0179,-0.7314 -0.3016,-0.3545 -1.4854,1.1398 0.2643,0.3831 0.4431,1.1725 0.2366,1.8488 -1.0436,0.6025 -1.48276,-1.1293 -0.79396,-0.97 -0.1996,-0.4204 -1.72973,0.7165 0.15615,0.4384 0.12445,1.2473 -0.24989,1.847 -1.16405,0.3119 -1.13991,-1.4746 -0.51586,-1.1424 -0.084,-0.4578 -1.85623,0.2444 0.0374,0.4639 -0.20261,1.237 -0.71941,1.7194 h -1.20512 l -0.71941,-1.7194 -0.20261,-1.237 0.0374,-0.4639 -1.85623,-0.2444 -0.084,0.4578 -0.51586,1.1424 -1.13991,1.4746 -1.16405,-0.3119 -0.24989,-1.847 0.12445,-1.2473 0.15615,-0.4384 -1.72973,-0.7165 -0.1996,0.4204 -0.79396,0.97 -1.48276,1.1293 -1.0436,-0.6025 0.2366,-1.8488 0.4431,-1.1725 0.2643,-0.3831 -1.4854,-1.1398 -0.3016,0.3545 -1.0179,0.7314 -1.7245,0.7071 -0.8522,-0.8522 0.7071,-1.7245 0.7314,-1.0179 0.3545,-0.3016 -1.1398,-1.4854 -0.3831,0.2643 -1.1725,0.4431 -1.8488,0.2366 -0.6025,-1.0436 1.1293,-1.48276 0.97,-0.79396 0.4204,-0.1996 -0.7165,-1.72973 -0.4384,0.15615 -1.2473,0.12445 -1.847,-0.24989 -0.3119,-1.16405 1.4746,-1.13991 1.1424,-0.51586 0.4578,-0.084 -0.2444,-1.85623 -0.4639,0.0374 -1.237,-0.20261 -1.7194,-0.719408 v -1.20512 l 1.7194,-0.71941 1.237,-0.20261 0.4639,0.03736 0.2444,-1.85623 -0.4578,-0.08399 -1.1424,-0.51586 -1.4746,-1.13991 0.3119,-1.16405 1.847,-0.24989 1.2473,0.12445 0.4384,0.15615 0.7165,-1.72973 -0.4204,-0.1996 -0.97,-0.79396 -1.1293,-1.48276 0.6025,-1.0436 1.8488,0.2366 1.1725,0.4431 0.3831,0.2643 1.1398,-1.4854 -0.3545,-0.3016 -0.7314,-1.0179 -0.7071,-1.7245 0.8522,-0.8522 1.7245,0.7071 1.0179,0.7314 0.3016,0.3545 1.4854,-1.1398 -0.2643,-0.3831 -0.4431,-1.1725 -0.2366,-1.8488 1.0436,-0.6025 1.48276,1.1293 0.79396,0.97 0.1996,0.4204 1.72973,-0.7165 -0.15615,-0.4384 -0.12445,-1.2473 0.24989,-1.847 1.16405,-0.3119 1.13991,1.4746 0.51586,1.1424 0.084,0.4578 1.85623,-0.2444 -0.0374,-0.4639 0.20261,-1.237 0.71941,-1.7194 h 1.20512 l 0.71941,1.7194 0.20261,1.237 -0.0374,0.4639 1.85623,0.2444 0.084,-0.4578 0.51586,-1.1424 1.13991,-1.4746 1.16405,0.3119 0.24989,1.847 -0.12445,1.2473 -0.15615,0.4384 1.72973,0.7165 0.1996,-0.4204 0.79396,-0.97 1.48276,-1.1293 1.0436,0.6025 -0.2366,1.8488 -0.4431,1.1725 -0.2643,0.3831 1.4854,1.1398 0.3016,-0.3545 1.0179,-0.7314 1.7245,-0.7071 0.8522,0.8522 -0.7071,1.7245 -0.7314,1.0179 -0.3545,0.3016 1.1398,1.4854 0.3831,-0.2643 1.1725,-0.4431 1.8488,-0.2366 0.6025,1.0436 -1.1293,1.48276 -0.97,0.79396 -0.4204,0.1996 0.7165,1.72973 0.4384,-0.15615 1.2473,-0.12445 1.847,0.24989 0.3119,1.16405 -1.4746,1.13991 -1.1424,0.51586 -0.4578,0.08399 z"
       id="path24" />
    <path
       style="fill:#c6d52e;fill-opacity:1;stroke:#000000;stroke-width:1;stroke-dasharray:none"
       d="m 53.45417,156.08222 0.03736,0.4639 -0.20261,1.237 -0.71941,1.7194 h -1.20512 l -0.71941,-1.7194 -0.20261,-1.237 0.03736,-0.4639 -1.85623,-0.2444 -0.08399,0.4578 -0.51586,1.1424 -1.13991,1.4746 -1.16405,-0.3119 -0.24989,-1.847 0.12445,-1.2473 0.15615,-0.4384 -1.72973,-0.7165 -0.1996,0.4204 -0.79396,0.97 -1.48276,1.1293 -1.0436,-0.6025 0.2366,-1.8488 0.4431,-1.1725 0.2643,-0.3831 -1.4854,-1.1398 -0.3016,0.3545 -1.0179,0.7314 -1.7245,0.7071 -0.8522,-0.8522 0.7071,-1.7245 0.7314,-1.0179 0.3545,-0.3016 -1.1398,-1.4854 -0.3831,0.2643 -1.1725,0.4431 -1.8488,0.2366 -0.6025,-1.0436 1.1293,-1.48276 0.97,-0.79396 0.4204,-0.1996 -0.7165,-1.72973 -0.4384,0.15615 -1.2473,0.12445 -1.847,-0.24989 -0.3119,-1.16405 1.4746,-1.13991 1.1424,-0.51586 0.4578,-0.084 -0.2444,-1.85623 -0.4639,0.0374 -1.237,-0.20261 -1.7194,-0.71941 v -1.20512 l 1.7194,-0.71941 1.237,-0.20261 0.4639,0.0374 0.2444,-1.85623 -0.4578,-0.084 -1.1424,-0.51586 -1.4746,-1.13991 0.3119,-1.16405 1.847,-0.24989 1.2473,0.12445 0.4384,0.15615 0.7165,-1.72973 -0.4204,-0.1996 -0.97,-0.79396 -1.1293,-1.48276 0.6025,-1.0436 1.8488,0.2366 1.1725,0.4431 0.3831,0.2643 1.1398,-1.4854 -0.3545,-0.3016 -0.7314,-1.0179 -0.7071,-1.7245 0.8522,-0.8522 1.7245,0.7071 1.0179,0.7314 0.3016,0.3545 1.4854,-1.1398 -0.2643,-0.3831 -0.4431,-1.1725 -0.2366,-1.8488 1.0436,-0.6025 1.48276,1.1293 0.79396,0.97 0.1996,0.4204 1.72973,-0.7165 -0.15615,-0.4384 -0.12445,-1.2473 0.24989,-1.847 1.16405,-0.3119 1.13991,1.4746 0.51586,1.1424 0.08399,0.4578 1.85623,-0.2444 -0.03736,-0.4639 0.20261,-1.237 0.71941,-1.7194 h 1.20512 l 0.71941,1.7194 0.20261,1.237 -0.03736,0.4639 1.85623,0.2444 z"
       id="path25"
       sodipodi:nodetypes="cccccccccccccccccccccccccccccccccccccccccccccccccccccccccccccccccccccccccccccccccccccccccccccccccccccccccc" />
    <path
       style="fill:#445bda;fill-opacity:1;stroke:#000000;stroke-width:1;stroke-dasharray:none"
       d="m 155.7608,96.952403 0.4639,-0.03736 1.237,0.20261 1.7194,0.71941 v 1.20512 l -1.7194,0.71941 -1.237,0.20261 -0.4639,-0.03736 -0.2444,1.856227 0.4578,0.084 1.1424,0.51586 1.4746,1.13991 -0.3119,1.16405 -1.847,0.24989 -1.2473,-0.12445 -0.4384,-0.15615 -0.7165,1.72973 0.4204,0.1996 0.97,0.79396 1.1293,1.48276 -0.6025,1.0436 -1.8488,-0.2366 -1.1725,-0.4431 -0.3831,-0.2643 -1.1398,1.4854 0.3545,0.3016 0.7314,1.0179 0.7071,1.7245 -0.8522,0.8522 -1.7245,-0.7071 -1.0179,-0.7314 -0.3016,-0.3545 -1.4854,1.1398 0.2643,0.3831 0.4431,1.1725 0.2366,1.8488 -1.0436,0.6025 -1.48276,-1.1293 -0.79396,-0.97 -0.1996,-0.4204 -1.72973,0.7165 0.15615,0.4384 0.12445,1.2473 -0.24989,1.847 -1.16405,0.3119 -1.13991,-1.4746 -0.51586,-1.1424 -0.084,-0.4578 -1.85623,0.2444 0.0374,0.4639 -0.20261,1.237 -0.71941,1.7194 h -1.20512 l -0.71941,-1.7194 -0.20261,-1.237 0.0374,-0.4639 -1.85623,-0.2444 -0.084,0.4578 -0.51586,1.1424 -1.13991,1.4746 -1.16405,-0.3119 -0.24989,-1.847 0.12445,-1.2473 0.15615,-0.4384 -1.72973,-0.7165 -0.1996,0.4204 -0.79396,0.97 -1.48276,1.1293 -1.0436,-0.6025 0.2366,-1.8488 0.4431,-1.1725 0.2643,-0.3831 -1.4854,-1.1398 -0.3016,0.3545 -1.0179,0.7314 -1.7245,0.7071 -0.8522,-0.8522 0.7071,-1.7245 0.7314,-1.0179 0.3545,-0.3016 -1.1398,-1.4854 -0.3831,0.2643 -1.1725,0.4431 -1.8488,0.2366 -0.6025,-1.0436 1.1293,-1.48276 0.97,-0.79396 0.4204,-0.1996 -0.7165,-1.72973 -0.4384,0.15615 -1.2473,0.12445 -1.847,-0.24989 -0.3119,-1.16405 1.4746,-1.13991 1.1424,-0.51586 0.4578,-0.084 -0.2444,-1.856227 -0.4639,0.03736 -1.237,-0.20261 -1.7194,-0.71941 v -1.20512 l 1.7194,-0.71941 1.237,-0.20261 0.4639,0.03736 0.2444,-1.85623 -0.4578,-0.08399 -1.1424,-0.51586 -1.4746,-1.13991 0.3119,-1.16405 1.847,-0.24989 1.2473,0.12445 0.4384,0.15615 0.7165,-1.72973 -0.4204,-0.1996 -0.97,-0.79396 -1.1293,-1.48276 0.6025,-1.0436 1.8488,0.2366 1.1725,0.4431 0.3831,0.2643 1.1398,-1.4854 -0.3545,-0.3016 -0.7314,-1.0179 -0.7071,-1.7245 0.8522,-0.8522 1.7245,0.7071 1.0179,0.7314 0.3016,0.3545 1.4854,-1.1398 -0.2643,-0.3831 -0.4431,-1.1725 -0.2366,-1.8488 1.0436,-0.6025 1.48276,1.1293 0.79396,0.97 0.1996,0.4204 1.72973,-0.7165 -0.15615,-0.4384 -0.12445,-1.2473 0.24989,-1.847 1.16405,-0.3119 1.13991,1.4746 0.51586,1.1424 0.084,0.4578 1.85623,-0.2444 -0.0374,-0.4639 0.20261,-1.237 0.71941,-1.7194 h 1.20512 l 0.71941,1.7194 0.20261,1.237 -0.0374,0.4639 1.85623,0.2444 0.084,-0.4578 0.51586,-1.1424 1.13991,-1.4746 1.16405,0.3119 0.24989,1.847 -0.12445,1.2473 -0.15615,0.4384 1.72973,0.7165 0.1996,-0.4204 0.79396,-0.97 1.48276,-1.1293 1.0436,0.6025 -0.2366,1.8488 -0.4431,1.1725 -0.2643,0.3831 1.4854,1.1398 0.3016,-0.3545 1.0179,-0.7314 1.7245,-0.7071 0.8522,0.8522 -0.7071,1.7245 -0.7314,1.0179 -0.3545,0.3016 1.1398,1.4854 0.3831,-0.2643 1.1725,-0.4431 1.8488,-0.2366 0.6025,1.0436 -1.1293,1.48276 -0.97,0.79396 -0.4204,0.1996 0.7165,1.72973 0.4384,-0.15615 1.2473,-0.12445 1.847,0.24989 0.3119,1.16405 -1.4746,1.13991 -1.1424,0.51586 -0.4578,0.08399 z"
       id="path29" />
    <path
       style="fill:#25b739;fill-opacity:1;stroke:#000000;stroke-width:1;stroke-dasharray:none"
       d="m 149.56806,167.85788 0.4639,-0.0374 1.237,0.20261 1.7194,0.71941 v 1.20512 l -1.7194,0.71941 -1.237,0.20261 -0.4639,-0.0374 -0.2444,1.85623 0.4578,0.084 1.1424,0.51586 1.4746,1.13991 -0.3119,1.16405 -1.847,0.24989 -1.2473,-0.12445 -0.4384,-0.15615 -0.7165,1.72973 0.4204,0.1996 0.97,0.79396 1.1293,1.48276 -0.6025,1.0436 -1.8488,-0.2366 -1.1725,-0.4431 -0.3831,-0.2643 -1.1398,1.4854 0.3545,0.3016 0.7314,1.0179 0.7071,1.7245 -0.8522,0.8522 -1.7245,-0.7071 -1.0179,-0.7314 -0.3016,-0.3545 -1.4854,1.1398 0.2643,0.3831 0.4431,1.1725 0.2366,1.8488 -1.0436,0.6025 -1.48276,-1.1293 -0.79396,-0.97 -0.1996,-0.4204 -1.72973,0.7165 0.15615,0.4384 0.12445,1.2473 -0.24989,1.847 -1.16405,0.3119 -1.13991,-1.4746 -0.51586,-1.1424 -0.084,-0.4578 -1.85623,0.2444 0.0374,0.4639 -0.20261,1.237 -0.71941,1.7194 H 130.497 l -0.71941,-1.7194 -0.20261,-1.237 0.0374,-0.4639 -1.85623,-0.2444 -0.084,0.4578 -0.51586,1.1424 -1.13991,1.4746 -1.16405,-0.3119 -0.24989,-1.847 0.12445,-1.2473 0.15615,-0.4384 -1.72973,-0.7165 -0.1996,0.4204 -0.79396,0.97 -1.48276,1.1293 -1.0436,-0.6025 0.2366,-1.8488 0.4431,-1.1725 0.2643,-0.3831 -1.4854,-1.1398 -0.3016,0.3545 -1.0179,0.7314 -1.7245,0.7071 -0.8522,-0.8522 0.7071,-1.7245 0.7314,-1.0179 0.3545,-0.3016 -1.1398,-1.4854 -0.3831,0.2643 -1.1725,0.4431 -1.8488,0.2366 -0.6025,-1.0436 1.1293,-1.48276 0.97,-0.79396 0.4204,-0.1996 -0.7165,-1.72973 -0.4384,0.15615 -1.2473,0.12445 -1.847,-0.24989 -0.3119,-1.16405 1.4746,-1.13991 1.1424,-0.51586 0.4578,-0.084 -0.2444,-1.85623 -0.4639,0.0374 -1.237,-0.20261 -1.7194,-0.71941 v -1.20512 l 1.7194,-0.71941 1.237,-0.20261 0.4639,0.0374 0.2444,-1.85623 -0.4578,-0.084 -1.1424,-0.51586 -1.4746,-1.13991 0.3119,-1.16405 1.847,-0.24989 1.2473,0.12445 0.4384,0.15615 0.7165,-1.72973 -0.4204,-0.1996 -0.97,-0.79396 -1.1293,-1.48276 0.6025,-1.0436 1.8488,0.2366 1.1725,0.4431 0.3831,0.2643 1.1398,-1.4854 -0.3545,-0.3016 -0.7314,-1.0179 -0.7071,-1.7245 0.8522,-0.8522 1.7245,0.7071 1.0179,0.7314 0.3016,0.3545 1.4854,-1.1398 -0.2643,-0.3831 -0.4431,-1.1725 -0.2366,-1.8488 1.0436,-0.6025 1.48276,1.1293 0.79396,0.97 0.1996,0.4204 1.72973,-0.7165 -0.15615,-0.4384 -0.12445,-1.2473 0.24989,-1.847 1.16405,-0.3119 1.13991,1.4746 0.51586,1.1424 0.084,0.4578 1.85623,-0.2444 -0.0374,-0.4639 0.20261,-1.237 0.71941,-1.7194 h 1.20512 l 0.71941,1.7194 0.20261,1.237 -0.0374,0.4639 1.85623,0.2444 0.084,-0.4578 0.51586,-1.1424 1.13991,-1.4746 1.16405,0.3119 0.24989,1.847 -0.12445,1.2473 -0.15615,0.4384 1.72973,0.7165 0.1996,-0.4204 0.79396,-0.97 1.48276,-1.1293 1.0436,0.6025 -0.2366,1.8488 -0.4431,1.1725 -0.2643,0.3831 1.4854,1.1398 0.3016,-0.3545 1.0179,-0.7314 1.7245,-0.7071 0.8522,0.8522 -0.7071,1.7245 -0.7314,1.0179 -0.3545,0.3016 1.1398,1.4854 0.3831,-0.2643 1.1725,-0.4431 1.8488,-0.2366 0.6025,1.0436 -1.1293,1.48276 -0.97,0.79396 -0.4204,0.1996 0.7165,1.72973 0.4384,-0.15615 1.2473,-0.12445 1.847,0.24989 0.3119,1.16405 -1.4746,1.13991 -1.1424,0.51586 -0.4578,0.084 z"
       id="path30" />
    <path
       style="fill:#d52e2e;fill-opacity:1;stroke:#000000;stroke-width:1;stroke-dasharray:none"
       d="m 304.18044,190.82787 0.4639,-0.0374 1.237,0.20261 1.7194,0.71941 v 1.20512 l -1.7194,0.71941 -1.237,0.20261 -0.4639,-0.0374 -0.2444,1.85623 0.4578,0.084 1.1424,0.51586 1.4746,1.13991 -0.3119,1.16405 -1.847,0.24989 -1.2473,-0.12445 -0.4384,-0.15615 -0.7165,1.72973 0.4204,0.1996 0.97,0.79396 1.1293,1.48276 -0.6025,1.0436 -1.8488,-0.2366 -1.1725,-0.4431 -0.3831,-0.2643 -1.1398,1.4854 0.3545,0.3016 0.7314,1.0179 0.7071,1.7245 -0.8522,0.8522 -1.7245,-0.7071 -1.0179,-0.7314 -0.3016,-0.3545 -1.4854,1.1398 0.2643,0.3831 0.4431,1.1725 0.2366,1.8488 -1.0436,0.6025 -1.48276,-1.1293 -0.79396,-0.97 -0.1996,-0.4204 -1.72973,0.7165 0.15615,0.4384 0.12445,1.2473 -0.24989,1.847 -1.16405,0.3119 -1.13991,-1.4746 -0.51586,-1.1424 -0.084,-0.4578 -1.85623,0.2444 0.0374,0.4639 -0.20261,1.237 -0.71941,1.7194 h -1.20512 l -0.71941,-1.7194 -0.20261,-1.237 0.0374,-0.4639 -1.85623,-0.2444 -0.084,0.4578 -0.51586,1.1424 -1.13991,1.4746 -1.16405,-0.3119 -0.24989,-1.847 0.12445,-1.2473 0.15615,-0.4384 -1.72973,-0.7165 -0.1996,0.4204 -0.79396,0.97 -1.48276,1.1293 -1.0436,-0.6025 0.2366,-1.8488 0.4431,-1.1725 0.2643,-0.3831 -1.4854,-1.1398 -0.3016,0.3545 -1.0179,0.7314 -1.7245,0.7071 -0.8522,-0.8522 0.7071,-1.7245 0.7314,-1.0179 0.3545,-0.3016 -1.1398,-1.4854 -0.3831,0.2643 -1.1725,0.4431 -1.8488,0.2366 -0.6025,-1.0436 1.1293,-1.48276 0.97,-0.79396 0.4204,-0.1996 -0.7165,-1.72973 -0.4384,0.15615 -1.2473,0.12445 -1.847,-0.24989 -0.3119,-1.16405 1.4746,-1.13991 1.1424,-0.51586 0.4578,-0.084 -0.2444,-1.85623 -0.4639,0.0374 -1.237,-0.20261 -1.7194,-0.71941 v -1.20512 l 1.7194,-0.71941 1.237,-0.20261 0.4639,0.0374 0.2444,-1.85623 -0.4578,-0.084 -1.1424,-0.51586 -1.4746,-1.13991 0.3119,-1.16405 1.847,-0.24989 1.2473,0.12445 0.4384,0.15615 0.7165,-1.72973 -0.4204,-0.1996 -0.97,-0.79396 -1.1293,-1.48276 0.6025,-1.0436 1.8488,0.2366 1.1725,0.4431 0.3831,0.2643 1.1398,-1.4854 -0.3545,-0.3016 -0.7314,-1.0179 -0.7071,-1.7245 0.8522,-0.8522 1.7245,0.7071 1.0179,0.7314 0.3016,0.3545 1.4854,-1.1398 -0.2643,-0.3831 -0.4431,-1.1725 -0.2366,-1.8488 1.0436,-0.6025 1.48276,1.1293 0.79396,0.97 0.1996,0.4204 1.72973,-0.7165 -0.15615,-0.4384 -0.12445,-1.2473 0.24989,-1.847 1.16405,-0.3119 1.13991,1.4746 0.51586,1.1424 0.084,0.4578 1.85623,-0.2444 -0.0374,-0.4639 0.20261,-1.237 0.71941,-1.7194 h 1.20512 l 0.71941,1.7194 0.20261,1.237 -0.0374,0.4639 1.85623,0.2444 0.084,-0.4578 0.51586,-1.1424 1.13991,-1.4746 1.16405,0.3119 0.24989,1.847 -0.12445,1.2473 -0.15615,0.4384 1.72973,0.7165 0.1996,-0.4204 0.79396,-0.97 1.48276,-1.1293 1.0436,0.6025 -0.2366,1.8488 -0.4431,1.1725 -0.2643,0.3831 1.4854,1.1398 0.3016,-0.3545 1.0179,-0.7314 1.7245,-0.7071 0.8522,0.8522 -0.7071,1.7245 -0.7314,1.0179 -0.3545,0.3016 1.1398,1.4854 0.3831,-0.2643 1.1725,-0.4431 1.8488,-0.2366 0.6025,1.0436 -1.1293,1.48276 -0.97,0.79396 -0.4204,0.1996 0.7165,1.72973 0.4384,-0.15615 1.2473,-0.12445 1.847,0.24989 0.3119,1.16405 -1.4746,1.13991 -1.1424,0.51586 -0.4578,0.084 z"
       id="path31" />
    <g
       id="g46"
       style="display:inline;fill:#5c5c5c;fill-opacity:1">
      <circle
         style="display:inline;fill:#5c5c5c;fill-opacity:1;stroke:#000000;stroke-width:1;stroke-dasharray:none"
         id="path2"
         cx="135.42438"
         cy="38.666039"
         r="2.6458333" />
      <circle
         style="display:inline;fill:#5c5c5c;fill-opacity:1;stroke:#000000;stroke-width:1;stroke-dasharray:none"
         id="circle16"
         cx="236.77303"
         cy="189.21848"
         r="2.6458333" />
      <circle
         style="display:inline;fill:#5c5c5c;fill-opacity:1;stroke:#000000;stroke-width:1;stroke-dasharray:none"
         id="circle17"
         cx="321.96042"
         cy="70.800781"
         r="2.6458333" />
      <circle
         style="display:inline;fill:#5c5c5c;fill-opacity:1;stroke:#000000;stroke-width:1;stroke-dasharray:none"
         id="circle18"
         cx="203.52893"
         cy="125.23609"
         r="2.6458333" />
      <circle
         style="display:inline;fill:#5c5c5c;fill-opacity:1;stroke:#000000;stroke-width:1;stroke-dasharray:none"
         id="circle19"
         cx="89.477219"
         cy="96.134026"
         r="2.6458333" />
      <circle
         style="display:inline;fill:#5c5c5c;fill-opacity:1;stroke:#000000;stroke-width:1;stroke-dasharray:none"
         id="circle20"
         cx="32.928585"
         cy="186.59811"
         r="2.6458333" />
      <circle
         style="display:inline;fill:#5c5c5c;fill-opacity:1;stroke:#000000;stroke-width:1;stroke-dasharray:none"
         id="circle21"
         cx="307.13824"
         cy="118.74517"
         r="2.6458333" />
      <circle
         style="display:inline;fill:#5c5c5c;fill-opacity:1;stroke:#000000;stroke-width:1;stroke-dasharray:none"
         id="circle22"
         cx="185.50784"
         cy="51.838593"
         r="2.6458333" />
      <circle
         style="display:inline;fill:#5c5c5c;fill-opacity:1;stroke:#000000;stroke-width:1;stroke-dasharray:none"
         id="circle24"
         cx="256.14752"
         cy="99.159683"
         r="2.6458333" />
      <circle
         style="display:inline;fill:#5c5c5c;fill-opacity:1;stroke:#000000;stroke-width:1;stroke-dasharray:none"
         id="circle25"
         cx="51.966949"
         cy="137.61372"
         r="2.6458333" />
      <circle
         style="display:inline;fill:#5c5c5c;fill-opacity:1;stroke:#000000;stroke-width:1;stroke-dasharray:none"
         id="circle29"
         cx="137.2923"
         cy="98.439621"
         r="2.6458333" />
      <circle
         style="display:inline;fill:#5c5c5c;fill-opacity:1;stroke:#000000;stroke-width:1;stroke-dasharray:none"
         id="circle30"
         cx="131.09956"
         cy="169.34509"
         r="2.6458333" />
      <circle
         style="display:inline;fill:#5c5c5c;fill-opacity:1;stroke:#000000;stroke-width:1;stroke-dasharray:none"
         id="circle31"
         cx="285.71194"
         cy="192.31509"
         r="2.6458333" />
    </g>
  </g>
  <path
     style="fill:#d52e2e;fill-opacity:1;stroke:#000000;stroke-width:1;stroke-dasharray:none;stroke-opacity:1"
     d="m 212.57061,163.69054 1.09543,-6.9765 -1.6115,-0.48534 -0.15903,-2.8113 -1.61149,-0.48534 -1.68513,2.25589 -1.61149,-0.48534 -0.15903,-2.8113 -1.6115,-0.48534 -1.68511,2.25589 -1.6115,-0.48534 -0.15903,-2.81131 -1.61055,-0.48505 -1.68612,2.25557 -1.61054,-0.48506 -0.15903,-2.81129 -1.6115,-0.48536 -1.68512,2.2559 -1.6115,-0.48534 -0.15903,-2.8113 -1.6115,-0.48535 -1.68512,2.25589 -1.61149,-0.48534 -0.15904,-2.8113 -1.61054,-0.48506 -1.68613,2.25557 -1.61054,-0.48506 -0.15902,-2.81129 -1.61151,-0.48535 -1.68511,2.25589 -1.61151,-0.48534 -0.15902,-2.8113 -1.6115,-0.48535 -1.68513,2.2559 -1.61149,-0.48535 -0.15903,-2.8113 -1.61054,-0.48506 -1.68613,2.25557 -1.61054,-0.48505 -0.15903,-2.81131 -1.6115,-0.48534 -1.68512,2.2559 -1.61151,-0.48535 -0.15904,-2.8113 -1.61149,-0.48535 -1.68512,2.2559 -1.6115,-0.48535 -0.15903,-2.8113 -1.61054,-0.48505 -1.68511,2.25589 -1.6115,-0.48534 -0.15904,-2.8113 -1.61149,-0.48534 -1.68512,2.25589 -1.6115,-0.48535 -0.15902,-2.81129 -1.6115,-0.48535 -1.68512,2.25589 -1.61151,-0.48534 -0.15902,-2.8113 -1.61055,-0.48506 -1.68613,2.25557 -1.61053,-0.48506 -0.15904,-2.8113 -1.61149,-0.48534 -1.68512,2.25589 -1.6115,-0.48535 -0.15903,-2.81129 -1.6115,-0.48535 -1.68512,2.25589 -1.6115,-0.48534 -0.15903,-2.81129 -1.61054,-0.48507 -1.68512,2.2559 -1.6115,-0.48535 -0.15903,-2.81129 -1.61149,-0.48536 -1.68513,2.2559 -1.6115,-0.48534 -2.98721,6.57915 z"
     id="path13"
     sodipodi:nodetypes="cccccccccccccccccccccccccccccccccccccccccccccccccccccccccccccccccccccccccccccccc" />
  <path
     style="fill:#445bda;fill-opacity:1;stroke:#000000;stroke-width:1;stroke-dasharray:none;stroke-opacity:1"
     d="m 195.6074,180.09429 -3.35126,-6.21614 -1.57649,0.5892 -1.82839,-2.14142 -1.57649,0.58919 0.0243,2.81569 -1.57649,0.58919 -1.82839,-2.14142 -1.57649,0.5892 0.0243,2.81567 -1.57649,0.5892 -1.82839,-2.14142 -1.57556,0.58884 0.0233,2.81604 -1.57555,0.58884 -1.82839,-2.14142 -1.5765,0.58919 0.0243,2.81569 -1.57649,0.5892 -1.82839,-2.14143 -1.5765,0.5892 0.0243,2.81568 -1.57649,0.5892 -1.82839,-2.14142 -1.57556,0.58884 0.0233,2.81604 -1.57556,0.58884 -1.82838,-2.14142 -1.5765,0.5892 0.0243,2.81568 -1.5765,0.5892 -1.82838,-2.14142 -1.5765,0.58919 0.0243,2.81569 -1.5765,0.58919 -1.82838,-2.14142 -1.57556,0.58884 0.0233,2.81604 -1.57556,0.58885 -1.82839,-2.14143 -1.57649,0.5892 0.0243,2.81569 -1.5765,0.58919 -1.82839,-2.14142 -1.57649,0.58919 0.0243,2.81569 -1.5765,0.58919 -1.8284,-2.14142 -1.57555,0.58885 0.0243,2.81568 -1.57649,0.5892 -1.82839,-2.14142 -1.57649,0.58919 0.0243,2.81569 -1.5765,0.58919 -1.82838,-2.14142 -1.5765,0.58919 0.0243,2.81569 -1.5765,0.5892 -1.82838,-2.14143 -1.57556,0.58885 0.0233,2.81604 -1.57556,0.58884 -1.82838,-2.14142 -1.5765,0.58919 0.0243,2.81569 -1.57649,0.58919 -1.82839,-2.14142 -1.5765,0.5892 0.0243,2.81568 -1.57649,0.5892 -1.82839,-2.14142 -1.57556,0.58884 0.0243,2.81569 -1.57649,0.58919 -1.828387,-2.14142 -1.5765,0.58919 0.0243,2.81569 -1.57649,0.5892 1.60494,7.04506 z"
     id="path14"
     sodipodi:nodetypes="cccccccccccccccccccccccccccccccccccccccccccccccccccccccccccccccccccccccccccccccc" />
  <path
     style="fill:#25b739;fill-opacity:1;stroke:#000000;stroke-width:1;stroke-dasharray:none;stroke-opacity:1"
     d="m 335.10943,165.0215 0.2058,-7.05897 -1.65988,-0.27799 -0.51272,-2.76872 -1.65988,-0.27798 -1.3868,2.4506 -1.65988,-0.27799 -0.51272,-2.76872 -1.65988,-0.27798 -1.3868,2.4506 -1.65987,-0.27798 -0.51272,-2.76873 -1.6589,-0.27782 -1.38784,2.45041 -1.65889,-0.27782 -0.51272,-2.76872 -1.65989,-0.278 -1.3868,2.45061 -1.65988,-0.27799 -0.51272,-2.76872 -1.65988,-0.27799 -1.3868,2.45061 -1.65988,-0.27799 -0.51272,-2.76872 -1.6589,-0.27783 -1.38784,2.45041 -1.6589,-0.27782 -0.51271,-2.76872 -1.65988,-0.27799 -1.3868,2.4506 -1.65989,-0.27799 -0.51271,-2.76871 -1.65989,-0.278 -1.3868,2.45061 -1.65988,-0.27799 -0.51272,-2.76872 -1.65889,-0.27782 -1.38784,2.45041 -1.6589,-0.27783 -0.51272,-2.76872 -1.65988,-0.27799 -1.3868,2.45061 -1.65989,-0.278 -0.51272,-2.76872 -1.65988,-0.27798 -1.3868,2.4506 -1.65988,-0.27799 -0.51273,-2.76872 -1.65889,-0.27782 -1.3868,2.4506 -1.65987,-0.27798 -0.51273,-2.76872 -1.65987,-0.27799 -1.3868,2.4506 -1.65989,-0.27799 -0.51271,-2.76871 -1.65989,-0.278 -1.3868,2.45061 -1.65988,-0.27799 -0.51272,-2.76872 -1.65889,-0.27782 -1.38784,2.45041 -1.6589,-0.27783 -0.51271,-2.76872 -1.65989,-0.27799 -1.3868,2.45061 -1.65988,-0.27799 -0.51272,-2.76872 -1.65988,-0.27799 -1.3868,2.4506 -1.65988,-0.27798 -0.51272,-2.76873 -1.6589,-0.27782 -1.3868,2.45061 -1.65988,-0.27799 -0.51272,-2.76872 -1.65987,-0.278 -1.3868,2.45061 -1.65988,-0.27799 -2.13261,6.90368 z"
     id="path15"
     sodipodi:nodetypes="cccccccccccccccccccccccccccccccccccccccccccccccccccccccccccccccccccccccccccccccc" />
  <path
     style="fill:#25b739;fill-opacity:1;stroke:#000000;stroke-width:1;stroke-dasharray:none;stroke-opacity:1"
     d="m 336.57172,34.161689 0.2058,-7.05897 -1.65988,-0.27799 -0.51272,-2.76872 -1.65988,-0.27798 -1.3868,2.4506 -1.65988,-0.27799 -0.51272,-2.76872 -1.65988,-0.27798 -1.3868,2.4506 -1.65987,-0.27798 -0.51272,-2.76873 -1.6589,-0.27782 -1.38784,2.45041 -1.65889,-0.27782 -0.51272,-2.76872 -1.65989,-0.278 -1.3868,2.45061 -1.65988,-0.27799 -0.51272,-2.76872 -1.65988,-0.27799 -1.3868,2.45061 -1.65988,-0.27799 -0.51272,-2.76872 -1.6589,-0.27783 -1.38784,2.45041 -1.6589,-0.27782 -0.51271,-2.76872 -1.65988,-0.27799 -1.3868,2.4506 -1.65989,-0.27799 -0.51271,-2.76871 -1.65989,-0.278 -1.3868,2.45061 -1.65988,-0.27799 -0.51272,-2.76872 -1.65889,-0.27782 -1.38784,2.45041 -1.6589,-0.27783 -0.51272,-2.76872 -1.65988,-0.27799 -1.3868,2.45061 -1.65989,-0.278 -0.51272,-2.76872 -1.65988,-0.27798 -1.3868,2.4506 -1.65988,-0.27799 -0.51273,-2.76872 -1.65889,-0.27782 -1.3868,2.4506 -1.65987,-0.27798 -0.51273,-2.76872 -1.65987,-0.27799 -1.3868,2.4506 -1.65989,-0.27799 -0.51271,-2.76871 -1.65989,-0.278 -1.3868,2.45061 -1.65988,-0.27799 -0.51272,-2.76872 -1.65889,-0.27782 -1.38784,2.45041 -1.6589,-0.27783 -0.51271,-2.76872 -1.65989,-0.27799 -1.3868,2.45061 -1.65988,-0.27799 -0.51272,-2.76872 -1.65988,-0.2779897 -1.3868,2.4505997 -1.65988,-0.27798 -0.51272,-2.7687297 -1.6589,-0.27782 -1.3868,2.4506097 -1.65988,-0.27799 -0.51272,-2.7687197 -1.65987,-0.278 -1.3868,2.4506097 -1.65988,-0.27799 -2.13261,6.90368 z"
     id="path23"
     sodipodi:nodetypes="cccccccccccccccccccccccccccccccccccccccccccccccccccccccccccccccccccccccccccccccc" />
  <path
     style="fill:#445bda;fill-opacity:1;stroke:#000000;stroke-width:1;stroke-dasharray:none;stroke-opacity:1"
     d="m 104.0791,54.569765 -3.35126,-6.21614 -1.576495,0.5892 -1.828389,-2.14142 -1.57649,0.58919 0.0243,2.81569 -1.57649,0.58919 -1.82839,-2.14142 -1.57649,0.5892 0.0243,2.81567 -1.57649,0.5892 -1.82839,-2.14142 -1.57556,0.58884 0.0233,2.81604 -1.57555,0.58884 -1.82839,-2.14142 -1.5765,0.58919 0.0243,2.81569 -1.57649,0.5892 -1.82839,-2.14143 -1.5765,0.5892 0.0243,2.81568 -1.57649,0.5892 -1.82839,-2.14142 -1.57556,0.58884 0.0233,2.81604 -1.57556,0.58884 -1.82838,-2.14142 -1.5765,0.5892 0.0243,2.81568 -1.5765,0.5892 -1.82838,-2.14142 -1.5765,0.58919 0.0243,2.81569 -1.5765,0.58919 -1.82838,-2.14142 -1.57556,0.58884 0.0233,2.81604 -1.57556,0.58885 -1.82839,-2.14143 -1.57649,0.5892 0.0243,2.81569 -1.5765,0.58919 -1.82839,-2.14142 -1.57649,0.58919 0.0243,2.81569 -1.5765,0.58919 -1.8284,-2.14142 -1.57555,0.58885 0.0243,2.81568 -1.57649,0.5892 -1.82839,-2.14142 -1.57649,0.58919 0.0243,2.815687 -1.5765,0.58919 -1.82838,-2.141417 -1.5765,0.58919 0.0243,2.815687 -1.5765,0.5892 -1.82838,-2.14143 -1.57556,0.58885 0.0233,2.81604 -1.57556,0.58884 -1.82838,-2.14142 -1.5765,0.58919 0.0243,2.81569 -1.57649,0.58919 -1.82839,-2.14142 -1.5765,0.5892 0.0243,2.81568 -1.57649,0.5892 -1.82839,-2.14142 -1.575558,0.58884 0.0243,2.81569 -1.5764897,0.58919 -1.8283902,-2.14142 -1.5765,0.58919 0.0243,2.81569 -1.57649,0.5892 1.60494,7.045061 z"
     id="path26"
     sodipodi:nodetypes="cccccccccccccccccccccccccccccccccccccccccccccccccccccccccccccccccccccccccccccccc" />
  <path
     style="fill:#445bda;fill-opacity:1;stroke:#000000;stroke-width:1;stroke-dasharray:none;stroke-opacity:1"
     d="m 297.16617,51.814145 -3.35126,-6.21614 -1.57649,0.5892 -1.82839,-2.14142 -1.57649,0.58919 0.0243,2.81569 -1.57649,0.58919 -1.82839,-2.14142 -1.57649,0.5892 0.0243,2.81567 -1.57649,0.5892 -1.82839,-2.14142 -1.57556,0.58884 0.0233,2.81604 -1.57555,0.58884 -1.82839,-2.14142 -1.5765,0.58919 0.0243,2.81569 -1.57649,0.5892 -1.82839,-2.14143 -1.5765,0.5892 0.0243,2.81568 -1.57649,0.5892 -1.82839,-2.14142 -1.57556,0.58884 0.0233,2.81604 -1.57556,0.58884 -1.82838,-2.14142 -1.5765,0.5892 0.0243,2.81568 -1.5765,0.5892 -1.82838,-2.14142 -1.5765,0.58919 0.0243,2.81569 -1.5765,0.58919 -1.82838,-2.14142 -1.57556,0.58884 0.0233,2.81604 -1.57556,0.58885 -1.82839,-2.14143 -1.57649,0.5892 0.0243,2.81569 -1.5765,0.58919 -1.82839,-2.14142 -1.57649,0.58919 0.0243,2.81569 -1.5765,0.58919 -1.8284,-2.14142 -1.57555,0.58885 0.0243,2.81568 -1.57649,0.5892 -1.82839,-2.14142 -1.57649,0.58919 0.0243,2.815687 -1.5765,0.58919 -1.82838,-2.141417 -1.5765,0.58919 0.0243,2.815687 -1.5765,0.5892 -1.82838,-2.14143 -1.57556,0.58885 0.0233,2.81604 -1.57556,0.58884 -1.82838,-2.14142 -1.5765,0.58919 0.0243,2.81569 -1.57649,0.58919 -1.82839,-2.14142 -1.5765,0.5892 0.0243,2.81568 -1.57649,0.5892 -1.82839,-2.14142 -1.57556,0.58884 0.0243,2.81569 -1.57649,0.58919 -1.82839,-2.14142 -1.5765,0.58919 0.0243,2.81569 -1.57649,0.5892 1.60494,7.045062 z"
     id="path27"
     sodipodi:nodetypes="cccccccccccccccccccccccccccccccccccccccccccccccccccccccccccccccccccccccccccccccc" />
  <path
     style="fill:#25b739;fill-opacity:1;stroke:#000000;stroke-width:1;stroke-dasharray:none;stroke-opacity:1"
     d="m 107.66903,42.000531 0.2058,-7.05897 -1.65988,-0.27799 -0.51272,-2.76872 -1.65988,-0.27798 -1.3868,2.4506 -1.65988,-0.27799 -0.51272,-2.76872 -1.659876,-0.27798 -1.3868,2.4506 -1.65987,-0.27798 -0.51272,-2.76873 -1.6589,-0.27782 -1.38784,2.45041 -1.65889,-0.27782 -0.51272,-2.76872 -1.65989,-0.278 -1.3868,2.45061 -1.65988,-0.27799 -0.51272,-2.76872 -1.65988,-0.27799 -1.3868,2.45061 -1.65988,-0.27799 -0.51272,-2.76872 -1.6589,-0.27783 -1.38784,2.45041 -1.6589,-0.27782 -0.51271,-2.76872 -1.65988,-0.27799 -1.3868,2.4506 -1.65989,-0.27799 -0.51271,-2.76871 -1.65989,-0.278 -1.3868,2.45061 -1.65988,-0.27799 -0.51272,-2.76872 -1.65889,-0.27782 -1.38784,2.45041 -1.6589,-0.27783 -0.51272,-2.76872 -1.65988,-0.27799 -1.3868,2.45061 -1.65989,-0.278 -0.51272,-2.76872 -1.65988,-0.27798 -1.3868,2.4506 -1.65988,-0.27799 -0.51273,-2.76872 -1.65889,-0.27782 -1.3868,2.4506 -1.65987,-0.27798 -0.51273,-2.76872 -1.65987,-0.27799 -1.3868,2.4506 -1.65989,-0.27799 -0.51271,-2.76871 -1.65989,-0.278 -1.3868,2.45061 -1.65988,-0.27799 -0.51272,-2.76872 -1.65889,-0.27782 -1.38784,2.45041 -1.6589,-0.27783 -0.51271,-2.76872 -1.65989,-0.27799 -1.3868,2.45061 -1.65988,-0.27799 -0.51272,-2.76872 -1.65988,-0.27799 -1.3868,2.4506 -1.65988,-0.27798 -0.51272,-2.76873 -1.6589,-0.27782 -1.3868,2.45061 -1.65988,-0.27799 -0.51272,-2.76872 -1.65987,-0.278 -1.3868,2.45061 -1.65988,-0.27799 -2.13261,6.90368 z"
     id="path28"
     sodipodi:nodetypes="cccccccccccccccccccccccccccccccccccccccccccccccccccccccccccccccccccccccccccccccc" />
  <g
     id="g39"
     style="display:inline;opacity:0.406"
     inkscape:export-filename="image4.jpg"
     inkscape:export-xdpi="96"
     inkscape:export-ydpi="96">
    <ellipse
       style="fill:url(#radialGradient35);fill-opacity:1;stroke:none;stroke-width:1;stroke-dasharray:none;stroke-opacity:1"
       id="path34"
       cx="77.727654"
       cy="46.667007"
       rx="123.28302"
       ry="114.69057" />
    <ellipse
       style="fill:url(#radialGradient36);fill-opacity:1;stroke:none;stroke-width:1;stroke-dasharray:none;stroke-opacity:1"
       id="ellipse35"
       cx="311.24899"
       cy="157.61606"
       rx="123.28302"
       ry="114.69057" />
    <ellipse
       style="fill:url(#radialGradient37);fill-opacity:1;stroke:none;stroke-width:1;stroke-dasharray:none;stroke-opacity:1"
       id="ellipse36"
       cx="252.22258"
       cy="46.287754"
       rx="123.28302"
       ry="114.69057" />
    <ellipse
       style="fill:url(#radialGradient38);fill-opacity:1;stroke:none;stroke-width:1;stroke-dasharray:none;stroke-opacity:1"
       id="ellipse37"
       cx="164.80371"
       cy="149.39719"
       rx="123.28302"
       ry="114.69057" />
    <ellipse
       style="opacity:1;fill:url(#radialGradient39);fill-opacity:1;stroke:none;stroke-width:1;stroke-dasharray:none;stroke-opacity:1"
       id="ellipse38"
       cx="42.26786"
       cy="194.22736"
       rx="123.28302"
       ry="114.69057" />
  </g>
</svg>
